<?xml version="1.0" standalone="no"?>
<!DOCTYPE svg PUBLIC "-//W3C//DTD SVG 20010904//EN"
 "http://www.w3.org/TR/2001/REC-SVG-20010904/DTD/svg10.dtd">
<svg version="1.0" xmlns="http://www.w3.org/2000/svg"
 width="260.000000pt" height="260.000000pt" viewBox="0 0 260.000000 260.000000"
 preserveAspectRatio="xMidYMid meet">
<metadata>
Created by potrace 1.11, written by Peter Selinger 2001-2013
</metadata>
<g transform="translate(0.000000,260.000000) scale(0.100000,-0.100000)"
fill="#000000" stroke="none">
<path d="M583 2368 c-18 -29 -50 -84 -73 -123 -23 -38 -62 -105 -88 -147 -26
-43 -89 -149 -141 -235 -51 -87 -101 -169 -110 -183 -8 -14 -51 -83 -93 -155
l-78 -130 0 -95 0 -95 78 -130 c42 -71 85 -141 93 -155 9 -14 59 -96 110 -183
52 -86 115 -192 141 -235 26 -42 65 -108 88 -147 23 -38 55 -94 73 -122 l31
-53 686 0 687 0 27 48 c15 26 49 83 76 127 27 44 74 123 105 175 31 52 71 120
90 150 19 30 60 98 91 150 30 52 93 158 140 235 l84 140 0 95 0 95 -84 140
c-47 77 -110 183 -140 235 -31 52 -72 120 -91 150 -19 30 -59 98 -90 150 -31
52 -78 131 -105 175 -27 44 -61 101 -76 128 l-27 47 -687 0 -686 0 -31 -52z"/>
</g>
</svg>
