<?xml version="1.0" standalone="no"?>
<!DOCTYPE svg PUBLIC "-//W3C//DTD SVG 20010904//EN"
 "http://www.w3.org/TR/2001/REC-SVG-20010904/DTD/svg10.dtd">
<svg version="1.0" xmlns="http://www.w3.org/2000/svg"
 width="658.000000pt" height="658.000000pt" viewBox="0 0 658.000000 658.000000"
 preserveAspectRatio="xMidYMid meet">
<metadata>
Created by potrace 1.11, written by Peter Selinger 2001-2013
</metadata>
<g transform="translate(0.000000,658.000000) scale(0.100000,-0.100000)"
fill="#000000" stroke="none">
<path d="M2944 5201 c-6 -6 -43 -13 -76 -15 -16 0 -28 -5 -28 -9 0 -5 -4 -5
-10 -2 -5 3 -10 2 -10 -4 0 -5 -9 -8 -20 -6 -27 5 -52 -4 -44 -17 5 -7 1 -7
-11 0 -14 7 -22 6 -33 -4 -11 -11 -17 -12 -28 -3 -12 10 -13 9 -8 -5 4 -12 2
-15 -9 -10 -8 3 -18 0 -22 -6 -6 -9 -10 -9 -16 1 -7 11 -9 9 -9 -5 0 -11 -3
-16 -7 -13 -3 4 -12 -1 -20 -11 -8 -9 -12 -12 -9 -5 4 6 2 14 -4 18 -5 3 -10
0 -10 -8 0 -8 -7 -20 -15 -27 -13 -11 -15 -10 -9 6 5 16 3 15 -13 -4 -15 -18
-21 -20 -31 -10 -6 6 -13 9 -13 5 -1 -4 -3 -11 -4 -17 -1 -5 -3 -13 -4 -17 -1
-5 -6 -1 -11 7 -8 13 -10 12 -10 -4 0 -11 -3 -16 -7 -13 -3 4 -12 -1 -20 -11
-8 -9 -12 -12 -9 -5 4 6 2 14 -4 18 -5 3 -10 -1 -10 -9 0 -14 -18 -21 -42 -17
-4 0 -5 -5 -2 -13 3 -8 0 -17 -7 -22 -8 -5 -10 -3 -5 7 4 8 1 6 -7 -3 -8 -10
-17 -15 -20 -11 -4 3 -16 -6 -27 -20 -14 -17 -26 -24 -37 -20 -11 4 -14 3 -9
-5 4 -7 2 -12 -4 -12 -6 0 -8 -4 -5 -10 3 -6 -1 -7 -9 -4 -9 4 -18 -1 -22 -10
-3 -9 -10 -13 -15 -10 -5 3 -9 -2 -9 -10 0 -9 -11 -18 -25 -22 -14 -3 -22 -10
-19 -16 3 -5 -3 -12 -15 -15 -20 -5 -26 -15 -22 -37 1 -5 -5 -3 -14 4 -13 11
-15 10 -9 -4 4 -10 1 -16 -9 -16 -9 0 -19 -5 -23 -12 -5 -7 -3 -8 6 -3 9 5 11
4 6 -3 -4 -7 -14 -12 -22 -12 -13 0 -19 -13 -15 -34 1 -5 -6 -3 -15 5 -11 9
-15 9 -10 2 9 -16 -38 -80 -64 -88 -11 -3 -17 -12 -14 -19 3 -7 -5 -24 -16
-37 l-21 -24 16 30 17 30 -21 -25 c-12 -14 -25 -30 -29 -35 -5 -6 -7 -16 -5
-22 2 -6 -5 -18 -16 -25 -12 -8 -18 -18 -14 -21 3 -4 1 -7 -6 -7 -6 0 -16 -11
-21 -25 -5 -14 -14 -25 -20 -25 -8 0 -7 -6 0 -20 8 -16 8 -20 -2 -18 -7 2 -14
-7 -16 -19 -2 -13 -10 -23 -19 -23 -11 0 -14 -6 -10 -21 3 -12 0 -22 -9 -26
-8 -3 -12 -9 -9 -13 3 -4 -3 -11 -13 -15 -16 -6 -16 -7 2 -21 16 -11 17 -14 4
-14 -17 0 -28 -20 -28 -51 0 -11 -4 -17 -10 -14 -5 3 -11 -4 -12 -17 -4 -58
-13 -84 -37 -109 -14 -13 -76 -15 -503 -15 -303 1 -486 -3 -485 -9 1 -5 -3 -9
-10 -10 -6 0 -15 -3 -19 -7 -12 -12 -26 -9 -18 4 4 6 3 8 -4 4 -6 -3 -9 -15
-7 -26 2 -12 0 -18 -6 -14 -15 9 -39 -15 -32 -33 5 -12 2 -15 -11 -10 -13 5
-15 3 -8 -10 7 -11 5 -21 -4 -31 -11 -10 -12 -18 -4 -27 8 -10 8 -15 0 -20 -7
-5 -8 -11 -1 -19 6 -7 6 -18 1 -25 -5 -9 -3 -20 6 -28 17 -18 19 -37 2 -27 -9
5 -9 3 1 -9 7 -9 17 -14 22 -11 5 3 6 -1 3 -9 -3 -8 0 -18 5 -22 6 -3 8 -12 5
-18 -4 -7 -4 -9 1 -5 4 4 15 2 24 -4 9 -7 5 1 -9 17 l-25 30 28 -25 c15 -13
25 -30 23 -37 -3 -7 2 -13 10 -13 9 0 14 -6 11 -13 -3 -8 -1 -20 5 -28 8 -11
9 -10 4 4 -3 11 -2 16 4 12 6 -3 10 -11 10 -16 0 -5 10 -20 21 -32 12 -12 18
-16 14 -8 -6 10 -4 12 4 7 7 -5 10 -15 7 -23 -3 -8 -1 -11 4 -8 14 9 63 -43
54 -57 -4 -7 -3 -8 4 -4 7 4 12 1 12 -9 0 -9 4 -14 9 -10 5 3 17 -13 27 -35
10 -22 22 -40 28 -40 6 0 5 5 -2 12 -7 7 -12 17 -12 22 0 6 7 0 16 -12 8 -12
12 -27 9 -32 -3 -6 -1 -10 4 -10 6 0 11 6 12 13 0 6 5 -3 10 -21 5 -18 14 -30
19 -27 6 4 7 -1 3 -11 -5 -13 -3 -15 7 -9 10 6 12 4 7 -9 -5 -14 -3 -17 8 -12
8 3 15 1 15 -5 0 -15 26 -39 34 -32 3 4 6 -1 6 -10 0 -9 4 -17 8 -17 4 0 19
-18 32 -40 14 -21 31 -38 39 -37 7 1 21 -13 30 -30 9 -18 21 -31 27 -29 8 3
10 -3 6 -16 -3 -14 -1 -19 6 -14 6 3 13 2 17 -4 3 -5 1 -10 -5 -10 -6 0 -8 -5
-5 -10 4 -6 11 -7 17 -4 8 5 9 1 5 -10 -4 -9 -3 -14 2 -11 5 3 12 1 16 -5 4
-6 12 -7 18 -3 8 5 8 2 -1 -9 -10 -12 -10 -17 1 -27 8 -6 17 -8 20 -4 4 3 7 1
7 -5 0 -7 7 -12 15 -12 8 0 15 -3 14 -7 -2 -14 13 -53 21 -53 15 0 47 -35 43
-48 -3 -7 1 -10 11 -6 11 4 16 0 16 -13 0 -10 9 -24 20 -31 11 -7 20 -18 20
-25 0 -8 -4 -7 -11 3 -9 13 -10 13 -6 0 2 -8 11 -14 21 -12 11 2 16 -4 16 -18
0 -14 4 -19 12 -14 8 5 9 2 5 -9 -3 -9 -1 -19 5 -23 7 -5 8 -2 3 6 -6 9 -4 11
4 6 7 -5 10 -14 7 -22 -3 -8 0 -11 8 -8 8 3 16 -5 20 -20 3 -14 11 -26 17 -26
8 0 7 5 -1 15 -7 9 -10 18 -8 21 3 3 12 -9 19 -25 8 -17 18 -31 22 -31 5 0 5
5 2 10 -10 16 1 11 16 -7 10 -11 10 -14 2 -9 -7 4 -13 2 -13 -3 0 -6 7 -11 16
-11 11 0 14 -5 10 -16 -4 -12 -2 -15 9 -10 8 3 15 1 15 -5 0 -6 4 -8 9 -4 5 3
13 0 17 -6 4 -8 3 -9 -4 -5 -7 4 -12 2 -12 -3 0 -6 5 -11 11 -11 5 0 7 -4 4
-10 -3 -5 0 -10 8 -10 22 0 38 -24 27 -38 -6 -7 -7 -10 -4 -7 4 3 13 -3 21
-13 8 -9 12 -11 8 -4 -10 20 0 14 31 -20 16 -18 19 -24 6 -14 -12 11 -25 17
-28 13 -3 -3 3 -10 13 -16 47 -27 48 -28 32 -48 -13 -16 -13 -17 3 -4 15 11
19 11 24 -3 3 -9 10 -13 15 -10 5 3 9 -2 9 -11 0 -10 -5 -13 -12 -9 -7 4 -8 3
-4 -5 6 -9 11 -9 22 0 14 12 18 7 15 -23 -2 -16 9 -22 31 -19 8 1 5 -20 -6
-39 -7 -12 -6 -13 5 -2 19 18 28 15 24 -7 -2 -13 1 -18 9 -15 17 6 50 -32 40
-47 -4 -7 -3 -10 3 -6 6 4 20 -2 32 -12 23 -20 29 -37 9 -25 -8 4 -10 3 -5 -2
5 -5 14 -9 19 -9 6 0 13 -6 16 -14 3 -8 0 -11 -5 -8 -5 3 -10 -1 -10 -9 0 -10
4 -11 11 -4 13 13 29 13 21 0 -3 -5 -1 -10 5 -10 6 0 8 -4 5 -10 -3 -6 4 -10
17 -10 18 0 20 -2 8 -10 -13 -8 -13 -10 1 -10 9 0 23 -8 30 -17 13 -16 12 -17
-3 -4 -12 9 -18 10 -18 2 0 -6 4 -11 8 -11 5 0 17 -7 28 -16 10 -8 14 -13 8
-10 -6 3 -11 -1 -11 -8 0 -8 6 -12 14 -9 7 3 13 -2 13 -11 0 -9 5 -16 11 -16
5 0 7 5 3 12 -4 7 -3 8 4 4 6 -4 9 -13 5 -21 -3 -10 1 -15 12 -15 11 0 15 -5
12 -14 -4 -11 -1 -13 10 -9 12 5 15 2 10 -10 -3 -9 1 -21 11 -29 15 -11 16
-11 7 2 -5 9 -2 7 7 -3 10 -11 15 -23 12 -28 -5 -8 9 -13 29 -10 4 0 7 -6 7
-15 0 -9 5 -12 13 -8 7 5 6 0 -3 -11 -14 -17 -13 -17 9 -10 16 5 21 4 17 -4
-4 -6 -2 -11 4 -11 7 0 10 -7 7 -14 -4 -9 2 -17 14 -21 22 -7 25 -21 7 -29 -7
-3 -2 -3 12 0 14 4 22 3 18 -1 -4 -4 0 -14 8 -22 8 -8 11 -19 8 -25 -4 -6 1
-6 14 1 17 9 19 8 15 -9 -4 -16 0 -20 17 -20 19 0 20 -2 10 -15 -7 -9 -10 -18
-6 -22 3 -3 6 -1 6 6 0 16 17 5 31 -21 9 -16 8 -19 -3 -13 -11 7 -11 5 0 -6
11 -12 14 -12 23 1 8 12 9 10 4 -7 -5 -17 -2 -23 9 -23 9 0 16 -5 16 -10 0 -6
13 -24 30 -41 16 -18 27 -36 23 -42 -4 -7 1 -8 13 -3 10 4 16 4 12 1 -3 -4 2
-15 13 -26 11 -11 17 -25 12 -32 -5 -9 -4 -9 8 0 12 10 18 7 32 -16 9 -15 14
-31 10 -35 -3 -3 -1 -6 6 -6 8 0 11 -6 7 -16 -6 -15 -4 -15 11 -3 15 12 16 12
10 -3 -4 -11 -2 -17 5 -15 6 1 13 -4 16 -12 3 -9 0 -11 -8 -6 -9 5 -11 4 -6
-4 4 -6 11 -9 16 -6 4 3 15 2 24 -1 13 -5 14 -10 5 -20 -8 -10 -6 -12 10 -9
12 2 19 0 16 -5 -6 -10 41 -90 52 -90 4 0 2 5 -5 12 -7 7 -12 16 -12 21 0 5 9
-2 21 -17 11 -14 17 -31 13 -37 -4 -8 -3 -9 4 -5 7 4 12 2 12 -5 0 -8 3 -9 14
0 11 9 12 6 8 -15 -3 -19 -1 -25 7 -20 7 5 11 0 11 -13 0 -12 5 -21 11 -21 5
0 7 5 3 12 -4 7 -3 8 4 4 6 -4 9 -13 6 -20 -3 -8 0 -17 7 -22 8 -5 10 -3 5 7
-5 9 -3 8 6 -2 7 -8 21 -18 32 -22 16 -6 16 -10 5 -25 -7 -9 -10 -14 -5 -10 5
4 17 3 28 -3 14 -8 17 -14 9 -23 -8 -10 -7 -17 4 -26 14 -12 19 -7 16 13 -1 5
3 6 8 2 7 -4 7 -15 1 -33 -9 -25 -9 -26 5 -8 8 11 16 18 17 15 25 -40 41 -84
18 -49 -5 8 -10 10 -10 4 0 -6 3 -14 8 -18 4 -4 7 -13 7 -19 1 -7 6 -11 13 -9
7 1 15 -4 18 -12 5 -12 13 -10 47 11 23 14 45 31 49 37 4 6 7 2 6 -9 0 -11 1
-27 4 -35 3 -8 3 -12 1 -7 -8 13 -25 7 -20 -7 4 -11 1 -13 -10 -9 -11 4 -14 3
-9 -6 11 -17 -16 -9 -31 9 -11 13 -12 13 -13 -1 0 -19 15 -27 48 -24 12 1 22
-2 22 -7 0 -4 10 -6 23 -4 12 2 27 -1 34 -6 7 -6 14 -5 19 3 4 8 3 9 -4 5 -7
-4 -12 -2 -12 3 0 6 7 11 15 11 8 0 15 5 15 11 0 5 -4 8 -8 5 -4 -2 -9 5 -9
16 -2 28 -10 33 -27 19 -11 -9 -15 -8 -20 5 -8 22 -8 22 14 34 14 7 20 7 20 0
0 -5 -7 -10 -15 -10 -8 0 -15 -4 -15 -9 0 -19 53 -4 61 18 5 11 4 21 -1 21 -5
0 -11 -8 -13 -17 -4 -16 -5 -16 -6 -1 -1 21 15 32 32 21 20 -12 38 -12 34 0
-3 7 -10 11 -16 10 -6 -2 -11 2 -11 7 0 14 13 13 28 -2 6 -6 15 -8 19 -3 5 4
2 10 -4 12 -7 3 -13 9 -13 15 0 6 7 5 16 -3 13 -11 15 -11 14 2 -4 26 0 39 11
39 8 0 8 -5 -1 -15 -8 -9 -9 -15 -2 -15 6 0 14 4 17 10 3 5 10 10 15 10 5 0
-5 -13 -21 -29 -29 -29 -30 -54 -5 -74 7 -5 4 -6 -7 -3 -12 4 -17 2 -14 -6 2
-7 15 -11 28 -10 13 2 21 1 17 -3 -4 -4 -21 -9 -38 -11 -27 -3 -30 -1 -25 15
6 19 -7 33 -33 37 -7 2 -11 -3 -9 -9 2 -7 -3 -17 -11 -23 -11 -8 -12 -15 -3
-32 6 -11 9 -27 6 -35 -4 -8 0 -14 9 -14 8 0 12 5 9 10 -4 6 1 8 11 4 14 -6
17 -3 12 9 -3 8 -6 18 -6 20 0 3 -5 2 -10 -1 -18 -11 -23 24 -6 40 9 9 16 12
16 6 0 -5 -4 -13 -10 -16 -12 -7 -14 -26 -2 -24 19 3 33 -2 27 -11 -3 -5 -1
-10 5 -10 6 0 8 -5 4 -13 -6 -9 -5 -9 8 0 8 7 18 11 21 8 4 -3 5 -2 2 2 -3 3
2 11 11 17 23 17 23 48 0 67 -20 16 -20 17 -2 44 17 26 19 26 28 10 11 -18 -7
-39 -24 -29 -4 3 -8 1 -8 -4 0 -17 13 -21 33 -11 14 8 18 8 13 0 -4 -6 -2 -11
4 -11 11 0 9 32 -4 61 -7 16 29 89 44 89 4 0 11 -7 14 -16 8 -21 8 -24 -5 -24
-5 0 -8 4 -4 9 3 5 1 12 -5 16 -9 5 -12 -1 -9 -22 0 -3 -6 -10 -15 -15 -19
-11 -21 -34 -4 -44 6 -4 21 4 33 19 21 24 24 24 41 9 16 -16 17 -16 6 -1 -20
27 -28 69 -20 113 2 10 -2 21 -8 23 -6 2 -10 -7 -10 -19 1 -18 -4 -22 -22 -21
-13 2 -21 -1 -17 -7 10 -16 -25 -72 -41 -66 -9 3 -19 6 -24 6 -4 0 -10 7 -14
15 -5 13 -2 13 20 -1 27 -19 34 -16 37 14 0 11 5 18 9 16 4 -3 8 0 8 5 0 6 -8
11 -17 12 -14 0 -15 2 -3 6 8 3 21 12 28 21 11 14 12 14 12 -1 0 -9 5 -17 10
-17 14 0 12 23 -2 39 -11 11 -10 13 0 7 7 -4 15 0 19 10 5 15 7 14 15 -6 8
-22 9 -22 28 -5 19 17 28 41 12 31 -4 -2 -14 5 -22 17 -12 20 -12 21 4 8 9 -8
20 -11 23 -7 4 4 1 12 -7 17 -12 9 -12 10 3 5 9 -3 17 -1 17 3 0 5 -5 11 -12
13 -7 3 -5 7 6 11 10 4 15 3 11 -3 -3 -6 -2 -10 3 -10 6 0 13 7 16 16 8 21 8
26 -2 20 -5 -3 -9 1 -9 9 0 8 2 13 4 11 3 -2 20 12 40 32 19 21 31 30 27 22
-4 -8 -16 -21 -26 -28 -12 -9 -16 -23 -14 -43 2 -16 1 -27 -2 -25 -3 3 -15 -8
-27 -24 -21 -29 -24 -56 -10 -91 3 -10 2 -20 -4 -24 -6 -3 -9 0 -6 7 4 9 -2
14 -15 15 -20 2 -23 -7 -22 -52 1 -31 7 -54 17 -62 4 -4 5 -2 1 5 -4 6 -2 12
4 12 6 0 9 4 6 9 -3 5 2 15 11 22 9 8 17 12 17 9 1 -2 12 3 26 13 13 9 21 17
16 17 -5 0 -3 7 4 15 13 15 10 17 -24 19 -11 1 -20 7 -22 14 -1 7 0 8 3 2 9
-19 21 -10 20 15 0 20 -2 23 -13 14 -10 -8 -14 -8 -14 0 0 6 5 11 11 11 5 0 8
4 5 9 -3 5 1 14 9 21 10 9 15 9 15 1 0 -6 -5 -11 -12 -11 -6 0 -3 -9 7 -20 10
-11 20 -18 23 -16 2 3 14 1 27 -4 26 -10 45 4 45 33 0 10 4 16 9 13 16 -10 20
21 5 43 -8 11 -12 21 -8 21 3 0 -1 11 -10 25 -9 14 -13 26 -9 26 5 1 21 2 36
3 26 2 27 1 11 -11 -25 -18 -25 -50 0 -70 12 -10 18 -14 14 -9 -4 5 -1 15 7
22 19 19 8 49 -11 33 -9 -7 -14 -8 -14 -1 0 17 28 22 40 6 15 -16 30 -19 30
-3 0 5 -4 8 -8 5 -4 -2 -13 4 -20 15 -12 18 -7 24 19 21 4 -1 7 10 7 23 0 23
-13 31 -41 26 -5 -1 -6 3 -2 9 3 5 1 10 -6 10 -6 0 -9 -8 -6 -19 4 -15 1 -18
-12 -13 -14 5 -14 4 -2 -11 21 -26 5 -20 -23 8 -14 14 -21 25 -16 25 5 0 12
-5 15 -10 7 -12 25 -4 25 11 0 6 -6 7 -12 3 -7 -4 -9 -3 -5 1 20 23 69 8 115
-35 30 -29 41 -19 11 11 -18 18 -20 25 -11 40 7 10 8 20 3 24 -5 3 -12 -4 -16
-14 -5 -17 -10 -18 -30 -9 -14 6 -22 15 -19 19 3 5 1 9 -5 9 -5 0 -13 -4 -16
-10 -3 -5 -11 -10 -18 -10 -6 0 -1 7 12 17 22 15 25 15 36 0 7 -10 18 -17 25
-17 7 0 10 3 7 7 -4 3 1 12 11 19 16 12 16 14 -1 46 l-19 33 21 -25 c12 -14
19 -33 17 -43 -2 -9 3 -21 11 -26 13 -7 13 -9 -1 -14 -9 -4 -16 -11 -16 -17 0
-7 6 -8 18 -1 11 6 24 6 37 -1 20 -11 20 -11 0 12 l-20 23 21 -11 c16 -9 24
-7 37 8 15 17 14 19 -4 17 -10 -1 -19 -6 -19 -11 0 -6 -5 -5 -11 1 -6 6 -18 9
-25 6 -8 -3 -14 0 -14 7 0 6 5 8 10 5 6 -3 13 1 16 9 3 9 11 16 16 16 6 0 6
-6 -2 -14 -9 -12 -8 -15 9 -13 38 3 17 45 -22 44 -12 0 -16 -5 -12 -16 4 -10
-2 -8 -17 6 -21 21 -21 24 -6 40 14 14 20 14 33 3 13 -11 19 -11 33 4 16 17
16 18 -5 12 -12 -4 -24 -2 -28 4 -3 6 -11 7 -17 4 -7 -4 -8 -2 -4 4 4 7 14 9
24 4 9 -4 24 -7 32 -6 8 1 22 2 31 3 24 2 22 47 -2 48 -19 2 -22 -16 -4 -30 6
-5 4 -7 -5 -4 -8 2 -14 10 -13 16 2 6 -2 11 -7 11 -6 0 -10 -7 -10 -15 0 -8
-5 -15 -10 -15 -7 0 -7 6 0 20 6 11 15 20 21 20 5 0 14 10 19 23 8 21 9 21 9
2 1 -14 8 -21 22 -22 19 -2 20 0 7 15 -24 28 -28 39 -14 39 8 0 12 -6 10 -12
-3 -7 2 -17 10 -24 13 -11 14 -8 12 14 -2 15 -9 31 -17 37 -10 7 -9 8 7 4 26
-8 76 40 55 53 -10 6 -9 10 4 14 9 4 13 3 10 -3 -3 -6 -2 -10 4 -10 5 0 12 6
14 13 3 6 6 7 6 1 1 -6 -10 -21 -24 -34 -14 -13 -25 -28 -25 -34 0 -5 14 3 30
19 32 30 38 73 10 67 -11 -3 -10 2 4 16 12 14 27 19 46 17 22 -3 35 3 54 25
19 23 25 26 30 14 3 -8 2 -13 -3 -10 -5 3 -14 0 -20 -7 -8 -11 -5 -14 18 -14
20 0 28 4 24 14 -3 7 0 13 7 13 6 0 8 -5 5 -10 -3 -6 0 -13 9 -16 8 -3 12 -12
9 -20 -3 -8 0 -14 7 -14 6 0 8 5 5 10 -3 5 2 10 12 10 15 0 16 2 3 10 -13 9
-13 10 0 11 8 1 19 1 23 0 5 -1 6 3 2 9 -3 5 -2 10 2 10 5 0 10 10 10 22 2 18
0 20 -7 8 -7 -11 -8 -5 -5 18 2 23 0 32 -8 29 -7 -2 -10 -13 -9 -23 3 -15 1
-17 -9 -7 -10 10 -8 18 11 38 13 14 19 25 13 25 -5 0 -18 -9 -28 -20 -16 -18
-20 -19 -27 -6 -5 9 -16 13 -26 9 -9 -3 -6 3 8 13 31 23 46 25 77 11 21 -9 27
-8 39 7 7 11 11 23 7 29 -4 6 -1 7 7 2 8 -5 11 -3 8 6 -5 15 -36 19 -54 6 -7
-4 -14 -1 -17 7 -4 11 -1 13 10 9 12 -5 14 -3 8 8 -6 11 -5 12 6 2 18 -18 34
-16 19 2 -20 24 -3 17 23 -9 14 -14 22 -27 19 -30 -17 -18 16 -2 36 17 14 12
22 16 18 10 -4 -7 -2 -13 3 -13 6 0 11 7 11 15 0 18 -14 19 -41 3 -18 -11 -23
-10 -40 12 -10 14 -24 31 -29 38 -8 8 -8 12 0 12 6 0 13 -7 16 -15 4 -8 10
-12 15 -9 5 3 6 -2 3 -10 -8 -20 22 -32 40 -17 16 14 55 9 65 -8 6 -10 10 -9
15 4 3 10 11 13 18 9 10 -6 10 -5 0 8 -7 9 -24 14 -42 12 -17 -2 -30 0 -30 5
0 4 10 7 23 7 12 -1 30 2 41 7 14 7 17 6 11 -5 -3 -7 1 -4 9 6 20 25 20 35 1
42 -21 8 -19 25 3 18 15 -5 15 -4 1 8 -9 7 -21 24 -28 37 -9 16 -15 20 -21 12
-5 -9 -9 -8 -14 5 -4 10 -4 15 0 11 8 -8 64 23 64 36 0 4 -4 5 -10 2 -5 -3
-10 -1 -10 5 0 7 9 9 23 5 21 -6 21 -6 -3 15 -15 13 -19 21 -10 20 27 -4 41 0
35 9 -8 15 14 24 29 12 7 -6 16 -8 19 -4 10 9 9 25 -1 19 -4 -2 -14 0 -22 5
-11 7 -9 8 10 6 26 -4 69 -52 56 -64 -4 -4 -9 3 -13 15 -7 28 -18 28 -38 0
-14 -20 -16 -20 -13 -4 2 10 -2 21 -9 23 -7 2 -10 -3 -8 -14 2 -10 4 -23 4
-29 1 -13 51 -16 51 -3 0 5 -5 9 -11 9 -5 0 -7 5 -3 11 5 8 9 7 15 -4 11 -20
1 -49 -14 -40 -22 14 -52 10 -79 -10 -16 -12 -28 -25 -28 -31 0 -5 3 -6 7 -3
3 4 18 0 31 -9 24 -16 26 -16 44 6 10 13 16 26 12 29 -3 3 -11 -2 -19 -12 -7
-10 -19 -15 -29 -11 -24 9 -1 33 30 31 27 -2 45 -23 37 -44 -3 -7 1 -13 8 -13
7 0 9 3 5 7 -3 4 6 13 21 20 18 8 20 11 6 7 -33 -8 -36 11 -8 45 22 25 24 34
15 51 -7 13 -7 20 0 20 5 0 10 -6 10 -14 0 -8 6 -17 13 -19 9 -4 8 -8 -3 -17
-13 -10 -13 -11 2 -7 9 3 18 1 21 -6 2 -6 10 3 18 21 8 18 19 30 26 28 7 -3
15 0 19 6 4 6 3 8 -3 5 -12 -8 -36 17 -26 26 3 4 1 7 -7 7 -10 0 -10 3 -1 14
10 12 8 14 -15 12 -16 -2 -30 -8 -32 -15 -2 -6 2 -9 10 -8 7 2 10 2 6 0 -16
-9 -7 -25 10 -18 13 5 14 3 6 -5 -8 -8 -18 -9 -30 -2 -11 5 -25 7 -31 5 -7 -3
-23 3 -35 11 -27 19 -17 21 13 3 17 -10 22 -9 39 13 23 30 15 43 -9 14 -15
-18 -20 -20 -35 -9 -11 8 -13 15 -7 20 6 3 11 1 11 -4 0 -6 5 -11 10 -11 6 0
9 6 8 13 -2 8 7 11 27 10 17 -2 44 -4 60 -5 17 -2 36 -7 43 -11 20 -13 14 8
-8 28 -11 10 -20 13 -20 7 0 -7 -5 -12 -11 -12 -8 0 -8 4 0 14 9 11 6 14 -14
14 -26 0 -34 -13 -12 -21 9 -4 9 -6 0 -6 -16 -1 -24 14 -17 33 5 13 9 14 20 5
17 -14 18 -6 3 24 -7 15 -4 14 12 -6 15 -20 27 -26 43 -22 11 2 15 2 9 -1 -18
-8 -16 -27 1 -21 10 4 13 1 10 -7 -9 -24 14 -28 26 -5 7 12 8 19 2 15 -5 -3
-12 0 -15 7 -3 9 4 12 22 11 18 -1 28 3 28 12 0 7 -4 11 -8 8 -4 -2 -10 0 -14
6 -3 5 -11 10 -17 10 -6 0 -5 -7 3 -17 11 -15 11 -16 0 -6 -7 6 -20 9 -27 6
-17 -6 -18 11 -1 38 10 17 9 23 -13 40 -20 16 -21 18 -4 10 12 -6 23 -8 26 -6
2 2 5 -7 6 -20 1 -13 -3 -27 -8 -30 -6 -3 -10 -11 -10 -17 0 -6 11 -1 25 12
14 13 25 20 25 16 0 -4 8 -3 17 3 13 7 22 6 33 -4 14 -12 16 -12 17 7 1 12 -2
29 -8 40 -6 12 -6 18 1 18 5 0 10 -7 10 -16 0 -8 4 -13 9 -9 6 3 8 -7 5 -22
-2 -16 -1 -23 3 -17 5 6 17 16 28 23 19 11 19 12 -2 6 -18 -5 -22 -3 -17 9 3
9 10 13 15 10 5 -3 6 1 3 9 -3 8 2 14 11 14 10 0 14 -6 10 -16 -4 -13 -2 -13
8 1 8 10 18 14 22 10 4 -4 2 3 -4 16 -13 24 -3 29 18 10 9 -9 12 -9 7 -1 -3 6
0 14 6 16 10 4 10 6 1 6 -7 1 -13 5 -13 11 0 5 8 7 18 4 14 -5 15 -4 2 5 -11
8 -18 6 -28 -7 -7 -9 -16 -17 -20 -17 -4 0 -6 -9 -4 -20 2 -16 0 -17 -8 -5 -7
11 -10 11 -10 2 0 -7 -5 -10 -11 -7 -6 4 -17 -1 -25 -11 -11 -16 -13 -16 -8
-2 5 14 0 16 -24 12 -17 -3 -33 0 -37 6 -8 13 -35 13 -35 0 0 -6 5 -9 11 -8 6
2 22 -12 36 -30 18 -23 21 -31 9 -26 -9 3 -16 13 -16 21 0 9 -6 13 -14 10 -10
-4 -13 -1 -10 7 3 7 -2 13 -11 13 -9 0 -14 -6 -11 -12 3 -8 -5 -10 -22 -7 -17
3 -22 7 -12 10 19 6 80 70 80 83 0 6 5 7 10 4 6 -3 10 2 11 12 0 13 2 14 6 4
3 -8 -2 -20 -12 -28 -10 -7 -15 -16 -11 -20 4 -5 17 3 28 17 18 22 34 18 28
-6 -1 -4 4 -11 12 -16 9 -7 8 -8 -5 -4 -11 4 -17 2 -15 -5 2 -6 7 -10 11 -10
4 1 14 1 23 1 10 0 14 5 10 16 -3 8 -2 12 4 9 6 -3 10 -1 10 4 0 6 7 11 15 11
8 0 15 5 15 11 0 6 9 8 21 4 14 -5 19 -3 15 3 -3 6 -2 13 4 17 5 3 10 0 10 -7
0 -16 25 20 34 48 4 15 2 21 -9 21 -9 0 -13 -6 -10 -16 5 -16 -7 -43 -19 -42
-3 1 -7 1 -8 0 -22 -6 -58 -6 -58 0 0 5 12 8 27 7 14 0 28 4 30 11 3 8 -7 10
-29 8 -18 -2 -25 -1 -15 1 9 3 15 9 12 14 -3 5 -12 7 -20 3 -8 -3 -15 0 -15 7
0 6 5 8 10 5 6 -3 13 1 16 9 3 9 11 16 16 16 6 0 5 -6 -2 -15 -9 -11 -9 -15
-1 -15 16 0 26 29 14 41 -12 12 -45 1 -37 -12 3 -5 -2 -6 -10 -3 -15 6 -23
-14 -16 -41 2 -5 3 -17 4 -25 1 -9 5 -20 9 -27 4 -6 0 -14 -9 -17 -19 -7 -34
1 -33 17 0 9 2 9 6 0 8 -22 21 -14 21 12 0 24 -12 34 -21 18 -2 -5 -2 -2 0 6
2 9 -3 11 -14 7 -12 -4 -10 0 5 10 12 9 22 21 22 26 0 6 -8 4 -17 -3 -16 -13
-17 -12 -5 3 8 10 22 20 32 23 12 4 17 12 14 23 -5 13 -4 14 4 3 5 -7 15 -10
22 -6 9 6 9 9 -1 16 -9 5 -9 9 -3 9 7 0 20 -12 29 -27 14 -21 15 -30 6 -45
-18 -29 -13 -33 12 -10 12 11 26 21 30 21 5 -1 11 2 14 5 4 3 1 6 -5 6 -24 0
-27 2 -36 17 -5 10 -4 18 5 24 19 12 29 11 29 -2 0 -5 -4 -8 -9 -4 -5 3 -12 1
-15 -4 -3 -5 1 -11 9 -15 8 -3 17 -1 20 4 3 5 12 7 21 3 9 -3 14 0 12 8 -2 8
7 14 24 14 15 1 25 -2 22 -6 -2 -4 0 -10 5 -14 6 -3 8 4 6 16 -3 17 0 20 15
16 11 -3 17 -1 14 4 -3 5 1 11 8 14 8 3 14 16 15 28 0 12 -1 16 -4 9 -3 -6
-10 -9 -16 -5 -7 4 -8 0 -4 -11 5 -11 3 -15 -5 -10 -6 4 -8 3 -5 -3 3 -5 0
-10 -8 -10 -10 0 -11 5 -4 19 7 12 6 18 -1 18 -6 0 -13 -7 -16 -15 -4 -8 -10
-12 -15 -9 -5 3 -9 1 -9 -5 0 -5 6 -11 13 -14 6 -2 -1 -4 -17 -4 -15 0 -33 -7
-38 -14 -8 -11 -9 -10 -4 4 4 14 1 16 -19 13 -14 -3 -29 -7 -35 -11 -5 -3 -18
-1 -27 4 -10 6 -13 11 -8 12 6 1 21 3 35 6 14 2 33 4 42 4 19 0 31 14 35 43 3
16 1 17 -12 6 -8 -7 -12 -16 -9 -21 3 -5 0 -9 -5 -9 -16 0 -13 16 4 34 9 9 23
12 33 9 14 -6 15 -4 5 8 -10 12 -8 17 10 28 18 11 20 11 10 0 -21 -21 -15 -34
7 -14 11 10 17 21 15 26 -3 4 2 15 11 24 9 9 14 18 11 21 -3 3 -14 -4 -24 -15
-9 -12 -21 -21 -26 -21 -5 0 -1 7 7 16 9 8 14 20 11 25 -4 5 2 6 11 2 13 -5
15 -3 9 8 -8 12 -6 12 8 1 9 -8 21 -11 26 -7 6 3 9 0 6 -7 -4 -9 2 -14 16 -15
17 -2 18 1 9 13 -12 14 -4 19 23 15 12 -2 8 17 -5 22 -8 4 -9 6 -2 6 6 1 17
-6 24 -14 12 -14 5 -20 -21 -17 -4 1 -6 -10 -6 -23 0 -30 13 -33 22 -5 7 22
20 26 30 10 4 -6 1 -9 -6 -8 -6 2 -13 -2 -15 -7 -2 -6 4 -11 14 -11 19 0 27
31 11 42 -6 3 -2 12 9 20 19 13 20 54 2 54 -13 0 -33 -30 -26 -37 4 -4 11 -1
16 7 6 9 10 10 10 3 0 -21 -21 -25 -40 -8 -19 17 -35 59 -19 49 5 -3 9 -12 9
-20 0 -17 12 -18 28 -2 16 16 15 33 -1 20 -10 -8 -16 -5 -27 11 -12 20 -12 21
4 8 9 -8 19 -11 23 -8 3 4 23 -7 44 -24 21 -17 43 -28 49 -24 5 3 10 0 10 -7
0 -7 6 -4 12 7 21 38 56 74 64 67 5 -4 3 0 -4 10 -10 12 -10 18 -1 23 6 4 15
1 20 -6 5 -8 9 -10 9 -6 0 15 -43 66 -52 61 -7 -5 -12 10 -9 29 2 13 -26 8
-38 -7 -9 -11 -10 -20 -1 -35 7 -14 7 -21 0 -21 -5 0 -10 5 -10 11 0 6 -7 17
-15 25 -12 12 -12 19 -3 34 7 11 14 17 17 15 2 -3 -2 -11 -9 -20 -17 -20 -1
-19 21 1 17 15 60 12 45 -3 -3 -3 3 -13 14 -20 17 -12 24 -12 35 -3 20 17 19
27 -6 35 -16 5 -18 10 -9 20 9 11 7 14 -9 12 -13 -1 -19 -6 -17 -14 3 -7 -1
-10 -10 -6 -11 4 -12 9 -3 19 6 8 8 14 3 14 -4 0 -3 5 4 12 16 16 53 -17 44
-40 -5 -15 -4 -15 11 -3 9 7 14 17 11 22 -3 5 0 9 5 9 14 0 14 -17 2 -25 -6
-3 -8 -18 -6 -34 2 -15 -1 -34 -6 -42 -7 -11 -9 -11 -9 -1 0 7 -5 10 -11 6 -8
-4 -7 -9 2 -14 15 -10 41 -1 33 11 -3 5 3 9 13 9 10 0 14 3 8 8 -14 9 -17 50
-4 57 14 9 -9 45 -24 39 -7 -2 -27 2 -43 11 -16 8 -23 15 -16 15 7 0 21 -6 33
-12 17 -11 22 -10 33 4 7 10 16 15 19 11 4 -3 7 -2 7 3 0 6 -5 15 -12 22 -9 9
-14 7 -22 -12 -10 -22 -13 -23 -29 -12 -16 12 -16 14 -2 20 9 3 13 2 10 -4 -3
-6 -1 -10 4 -10 11 0 15 21 11 49 -1 8 14 -3 33 -24 33 -36 34 -37 40 -14 8
28 0 39 -14 19 -9 -12 -10 -12 -5 3 4 12 1 17 -9 15 -7 -2 -13 1 -12 7 1 5 10
10 19 10 10 1 16 -1 13 -3 -3 -3 9 -15 26 -28 18 -13 26 -25 20 -29 -6 -3 -11
-11 -11 -17 0 -7 6 -6 15 2 12 10 18 10 30 0 13 -11 14 -10 9 4 -4 11 -2 16 7
14 9 -2 13 4 11 14 -2 13 2 16 15 12 15 -5 16 -4 3 5 -8 6 -11 11 -6 11 5 0 1
9 -8 19 -10 11 -25 17 -34 15 -14 -5 -14 -4 1 6 9 6 17 15 17 19 0 14 -36 19
-55 9 -11 -7 -21 -6 -28 2 -9 8 -7 9 7 4 12 -4 17 -4 13 2 -3 6 -2 16 3 24 8
13 12 12 24 -5 12 -17 17 -18 41 -7 14 7 24 8 21 3 -3 -5 1 -12 10 -15 12 -4
15 -2 10 9 -3 8 -1 15 4 15 6 0 10 -6 10 -13 0 -19 34 -37 51 -26 10 6 11 9 2
10 -27 3 -32 4 -37 10 -6 5 -1 7 41 11 10 1 23 7 30 14 10 10 9 13 -3 18 -10
4 -13 2 -8 -6 5 -7 3 -8 -6 -3 -9 6 -11 4 -5 -6 5 -8 0 -7 -12 4 -24 21 -40
23 -23 2 9 -10 9 -15 1 -15 -6 0 -11 4 -11 8 0 13 -68 6 -84 -7 -10 -9 -15 -8
-19 3 -4 10 -1 13 8 10 10 -4 13 0 10 15 -2 12 1 21 7 21 5 0 8 -7 4 -15 -3
-8 -1 -15 3 -15 14 0 19 23 10 42 -7 12 -5 15 9 13 9 -2 21 -4 25 -4 5 -1 5
-6 1 -12 -4 -8 -9 -7 -16 2 -8 12 -9 11 -6 0 6 -22 27 -25 35 -6 4 12 -2 24
-18 37 -20 16 -21 18 -3 9 12 -6 23 -8 26 -6 2 2 5 -7 6 -20 1 -13 -3 -27 -8
-30 -6 -3 -10 -11 -10 -17 0 -6 10 -2 23 10 26 24 37 28 37 11 0 -5 -4 -7 -10
-4 -5 3 -10 2 -10 -4 0 -16 17 -22 27 -8 18 23 12 55 -14 78 -18 16 -24 19
-21 8 5 -13 1 -15 -20 -10 -18 3 -21 6 -10 9 23 5 51 49 35 56 -6 2 -2 4 10 2
11 -1 28 -7 35 -14 8 -6 18 -9 21 -5 4 3 13 0 22 -7 8 -7 15 -8 15 -2 0 13
-25 33 -33 26 -3 -3 -16 1 -29 11 -19 14 -20 16 -4 13 10 -2 21 3 24 11 3 9 0
11 -8 6 -9 -6 -9 -3 -1 13 l11 21 35 -20 c35 -21 46 -33 22 -23 -8 3 -19 -2
-26 -10 -10 -12 -9 -17 8 -28 16 -10 18 -15 8 -27 -10 -12 -8 -13 13 -6 14 4
22 4 18 0 -4 -4 -24 -9 -45 -10 -21 -2 -32 -1 -25 2 21 8 13 21 -13 21 -14 0
-25 -4 -25 -9 0 -5 5 -9 11 -9 8 0 9 -4 0 -13 -11 -14 -5 -27 11 -27 5 0 6 5
3 10 -3 6 -1 10 5 10 7 0 10 -7 6 -15 -10 -27 4 -46 25 -35 10 6 18 14 18 18
-4 22 3 33 16 28 8 -3 14 -1 12 4 -1 5 7 16 18 24 14 12 15 14 4 10 -10 -3
-20 0 -25 7 -5 8 -3 10 6 4 8 -5 11 -3 8 6 -3 8 -12 13 -21 11 -8 -1 -18 2
-21 6 -3 5 6 10 19 10 14 0 25 -5 25 -10 0 -5 5 -6 12 -2 6 4 8 3 5 -3 -4 -6
0 -13 8 -16 10 -4 12 -1 8 10 -4 11 -2 14 5 9 8 -5 10 -2 6 8 -3 9 -10 13 -15
10 -5 -3 -16 -1 -25 4 -14 8 -14 10 1 22 13 11 15 10 9 -4 -3 -9 -1 -16 5 -16
13 0 15 36 2 44 -5 3 -14 -1 -21 -9 -12 -15 -40 -10 -40 7 0 6 6 5 15 -2 13
-11 15 -9 13 11 -2 18 2 24 16 24 11 0 21 5 23 12 7 21 -41 5 -63 -21 -12 -14
-25 -22 -28 -19 -9 9 -7 25 2 19 11 -6 43 30 34 39 -4 3 2 3 13 -1 16 -5 18
-4 8 6 -13 14 -7 40 9 40 6 0 5 -6 -2 -15 -9 -11 -9 -15 -1 -15 6 0 14 7 17
15 4 8 10 15 16 15 5 0 7 -4 4 -9 -4 -5 0 -12 6 -15 7 -3 4 -4 -6 -3 -10 1
-21 -3 -23 -10 -2 -7 3 -10 14 -8 10 2 24 4 31 4 18 1 15 18 -7 40 -14 14 -16
22 -7 31 8 10 7 12 -6 7 -12 -4 -15 -2 -11 9 3 7 0 14 -7 14 -10 0 -10 3 0 15
6 8 8 20 4 26 -4 7 -3 9 4 5 16 -10 26 14 12 27 -10 9 -11 9 -5 -2 5 -9 4 -12
-3 -7 -6 4 -9 13 -5 21 3 9 -1 15 -10 15 -10 0 -13 7 -10 20 4 14 0 20 -12 20
-15 0 -16 2 -4 17 11 14 11 15 1 9 -9 -6 -25 4 -48 28 -32 34 -52 48 -39 26 3
-6 -1 -7 -9 -4 -9 3 -14 9 -12 13 2 3 -207 6 -464 6 -362 0 -466 2 -459 12 7
8 4 18 -9 31 -10 10 -18 28 -17 40 1 12 -2 19 -7 16 -5 -3 -7 6 -4 21 5 27
-13 32 -22 5 -3 -8 0 -10 8 -5 9 6 11 4 5 -5 -6 -10 -11 -9 -21 4 -12 17 -9
48 4 43 4 -1 8 3 9 8 1 6 -5 9 -13 7 -13 -3 -13 1 -4 17 6 12 9 21 8 22 -29 7
-48 7 -48 -1 0 -6 6 -9 13 -8 7 2 11 -7 11 -22 -2 -41 -3 -42 -24 -35 -15 5
-18 3 -14 -9 3 -9 10 -13 15 -10 5 3 6 -3 2 -13 -6 -15 -4 -16 8 -6 12 10 17
8 27 -8 7 -11 18 -17 24 -13 7 4 8 3 4 -5 -4 -6 -12 -8 -18 -5 -8 5 -9 1 -5
-10 4 -10 3 -15 -3 -11 -6 4 -9 14 -8 22 2 9 -2 18 -9 20 -16 6 -6 -49 10 -59
9 -6 8 -8 -1 -8 -8 0 -16 9 -19 20 -3 11 -9 17 -14 14 -5 -3 -9 0 -9 5 0 6 5
11 10 11 6 0 -1 18 -16 41 -14 22 -23 43 -20 47 3 3 6 0 6 -7 0 -7 5 -9 12 -5
8 5 7 10 -4 18 -21 15 -41 56 -28 56 5 0 10 -7 10 -15 0 -8 4 -15 8 -15 5 0
15 -11 22 -25 7 -13 17 -22 21 -19 5 3 2 16 -7 29 -9 13 -12 30 -8 36 5 9 2
10 -10 6 -14 -5 -15 -3 -6 12 7 14 6 22 -4 30 -7 6 -16 8 -19 4 -4 -3 -13 -1
-21 6 -11 9 -15 9 -18 -1 -3 -7 -7 -5 -12 7 -4 11 -4 16 0 12 8 -8 34 25 28
35 -8 12 -24 9 -22 -3 2 -6 -4 -14 -12 -16 -12 -4 -12 -3 -2 5 8 5 14 13 15
18 1 5 8 8 15 7 7 0 11 5 8 12 -3 9 0 12 10 8 7 -3 14 1 14 8 0 7 -3 9 -7 6
-3 -4 -17 0 -30 8 -23 15 -32 8 -14 -10 6 -6 -1 -17 -17 -29 -15 -11 -21 -13
-15 -6 10 11 9 18 -5 34 -9 11 -12 16 -5 13 6 -4 14 -3 17 2 9 14 -20 21 -34
8 -10 -9 -11 -9 -6 0 3 6 0 13 -6 16 -7 3 -2 5 12 4 14 0 31 -5 38 -10 8 -6
12 -6 12 1 0 15 -22 27 -42 24 -9 -2 -19 2 -22 7 -4 6 -12 9 -19 7 -7 -1 -9
-1 -5 1 4 2 5 10 2 18 -3 7 0 16 6 20 8 5 8 11 -1 21 -7 8 -7 14 -1 14 15 0
22 -26 10 -38 -8 -8 -8 -16 2 -27 18 -21 35 -19 37 6 2 17 -1 18 -13 9 -9 -8
-14 -9 -14 -2 0 6 8 16 18 21 16 10 16 10 -1 11 -10 0 -16 4 -13 9 6 9 -15 21
-47 27 -16 4 -16 2 -3 -19 11 -15 12 -27 5 -37 -8 -12 -9 -11 -7 5 2 11 -2 19
-9 18 -8 -2 -10 4 -6 14 5 12 3 14 -8 8 -8 -4 -11 -5 -7 0 4 4 3 14 -3 22 -6
7 -8 13 -3 13 5 1 -2 7 -16 14 l-25 14 27 -1 c14 -1 24 -6 20 -11 -3 -5 0 -6
5 -3 6 4 14 0 17 -9 3 -8 11 -12 17 -8 8 5 9 3 4 -6 -5 -9 -4 -11 3 -6 18 11
14 24 -8 31 -11 4 -18 11 -14 16 3 5 0 8 -8 7 -7 -2 -12 4 -10 12 2 8 0 12 -4
8 -10 -11 -35 12 -27 26 3 6 2 7 -2 3 -5 -4 -15 3 -22 15 -7 13 -12 17 -13 10
0 -7 -4 -10 -10 -7 -6 3 -7 -1 -3 -10 4 -12 8 -13 13 -5 5 8 9 7 13 -3 4 -11
0 -15 -14 -12 -10 2 -19 0 -19 -6 0 -5 -5 -9 -12 -9 -9 0 -9 3 0 12 16 16 15
31 0 22 -7 -4 -2 6 12 22 14 16 21 26 16 22 -5 -4 -14 0 -21 9 -11 15 -15 14
-39 -10 -14 -14 -26 -22 -26 -16 0 5 9 17 19 26 18 15 18 49 0 37 -8 -5 -13
10 -10 29 1 5 -3 6 -8 3 -5 -4 -14 1 -19 10 -6 10 -12 13 -16 6 -3 -6 3 -17
14 -25 17 -12 18 -16 6 -26 -11 -9 -16 -9 -22 0 -4 8 -3 9 4 5 7 -4 12 -3 12
3 0 18 -20 23 -26 7 -3 -9 -11 -16 -17 -16 -7 0 -7 4 1 12 10 10 7 15 -10 26
-22 13 -22 13 -1 7 27 -7 37 8 23 35 -9 16 -13 18 -24 8 -8 -7 -12 -16 -9 -20
8 -15 -15 -8 -27 7 -11 13 -10 14 3 10 23 -9 29 10 9 28 -9 9 -21 17 -27 19
-5 2 -9 6 -8 10 4 11 -31 -4 -39 -16 -5 -8 -8 -7 -8 1 0 7 8 17 18 22 24 14 6
14 -21 -1 -19 -10 -20 -9 -10 3 8 10 9 19 1 29 -8 12 -9 12 -4 -2 3 -12 0 -18
-10 -18 -9 0 -12 -5 -8 -12 5 -7 3 -8 -5 -4 -7 5 -10 11 -7 14 3 3 0 12 -7 21
-10 14 -10 14 4 4 13 -10 16 -10 16 2 0 8 -4 12 -9 9 -4 -3 -11 2 -14 11 -5
13 -9 14 -15 4 -6 -10 -12 -8 -27 8 -13 15 -22 19 -30 13 -7 -6 -10 -7 -7 -4
9 14 -64 61 -87 56 -5 -1 -8 3 -8 9 0 5 -5 7 -10 4 -6 -3 -13 2 -17 11 -6 16
-7 16 -14 -2 -5 -13 -8 -14 -8 -4 -1 8 -10 21 -22 28 -12 8 -18 9 -14 3 3 -6
1 -11 -4 -11 -6 0 -11 4 -11 8 0 12 -72 46 -92 43 -10 -1 -18 4 -18 11 0 10
-2 10 -9 -1 -7 -11 -13 -9 -30 8 -22 22 -37 28 -25 10 3 -6 -8 -3 -25 5 -17 9
-31 14 -31 10 0 -4 -6 -1 -14 5 -11 9 -15 9 -19 -1 -4 -9 -6 -8 -6 3 -1 13
-10 16 -46 14 -26 -2 -43 1 -39 6 3 6 -6 8 -20 5 -14 -3 -26 -2 -26 2 0 8
-499 10 -506 3z m881 -119 c-3 -3 -11 0 -18 7 -9 10 -8 11 6 5 10 -3 15 -9 12
-12z m249 -120 c3 -5 -1 -9 -9 -9 -8 0 -12 4 -9 9 3 4 7 8 9 8 2 0 6 -4 9 -8z
m168 -97 c3 3 11 -3 19 -12 10 -14 10 -16 0 -6 -7 6 -20 9 -27 6 -8 -3 -14 1
-14 8 0 11 -3 11 -10 -1 -5 -8 -10 -10 -10 -4 0 17 12 25 25 14 7 -5 14 -8 17
-5z m63 -45 c3 -5 1 -10 -4 -10 -6 0 -11 5 -11 10 0 6 2 10 4 10 3 0 8 -4 11
-10z m65 -80 c0 -5 -5 -10 -11 -10 -5 0 -7 5 -4 10 3 6 8 10 11 10 2 0 4 -4 4
-10z m54 -36 c3 -8 2 -12 -4 -9 -6 3 -10 2 -10 -3 0 -5 -7 -9 -15 -9 -12 0
-12 3 3 18 9 10 18 18 18 18 1 1 5 -6 8 -15z m72 -86 c12 -14 13 -18 3 -10 -9
6 -19 9 -22 6 -3 -3 -11 -3 -17 1 -9 6 -9 10 1 16 8 5 14 9 15 9 0 0 9 -10 20
-22z m224 -357 c0 -10 -39 -11 -45 -2 -2 5 7 9 20 9 14 0 25 -3 25 -7z m105
-191 c-3 -6 0 -13 9 -16 8 -3 17 -13 21 -22 5 -14 4 -14 -12 0 -10 8 -25 13
-33 11 -13 -4 -13 -3 0 6 8 6 11 11 7 11 -9 0 1 20 9 20 3 0 2 -5 -1 -10z
m-44 -60 c6 0 7 5 4 10 -3 6 -1 10 5 10 7 0 10 -6 8 -12 -6 -17 -31 -17 -34 0
-1 7 0 8 3 2 2 -5 9 -10 14 -10z m53 12 c2 -4 1 -14 -3 -21 -6 -9 -11 -10 -15
-2 -4 6 -1 11 6 11 9 0 9 3 -2 10 -9 6 -10 10 -3 10 6 0 14 -4 17 -8z m1013
-572 c-1 -11 -5 -20 -9 -20 -3 0 -6 9 -5 20 1 11 5 20 9 20 3 0 6 -9 5 -20z
m-77 -8 c0 -5 -7 -9 -15 -9 -8 0 -15 4 -15 9 0 4 7 8 15 8 8 0 15 -4 15 -8z
m-190 -143 c0 -14 -17 -10 -23 5 -4 10 -1 13 9 9 7 -3 14 -9 14 -14z m30 -1
c-23 -25 -27 -46 -5 -28 9 7 18 10 22 6 3 -3 1 -6 -5 -6 -7 0 -12 -5 -12 -11
0 -6 7 -9 14 -6 11 4 13 1 9 -10 -4 -10 -2 -14 5 -9 6 3 13 2 16 -3 10 -16
-18 -6 -52 18 -31 22 -32 24 -15 37 10 7 14 14 8 14 -5 0 -3 5 5 10 26 17 32
11 10 -12z m60 -33 c0 -12 -19 -12 -23 0 -4 9 -1 12 9 8 7 -3 14 -7 14 -8z
m-266 -119 c-3 -9 -10 -16 -15 -16 -5 0 -4 9 3 20 14 22 21 20 12 -4z m61 -46
c3 -5 2 -10 -4 -10 -5 0 -13 5 -16 10 -3 6 -2 10 4 10 5 0 13 -4 16 -10z m-55
-37 c0 -10 6 -13 17 -9 15 6 15 5 -1 -13 -15 -17 -16 -20 -2 -28 12 -7 10 -15
-16 -48 -17 -22 -28 -32 -24 -22 4 13 2 17 -6 14 -7 -2 -12 -10 -10 -17 1 -6
-17 4 -40 23 -24 19 -49 33 -56 31 -7 -1 -8 0 -2 3 5 2 8 9 5 14 -4 5 2 6 11
2 12 -4 15 -3 10 5 -4 7 -3 12 1 12 5 0 18 7 29 16 19 15 19 16 -1 9 -17 -5
-18 -4 -7 7 11 11 17 8 33 -14 13 -18 25 -24 40 -21 12 4 18 11 15 19 -3 8 -9
21 -13 31 -4 11 -3 14 5 9 7 -4 12 -14 12 -23z m-4210 -123 c0 -5 -2 -10 -4
-10 -3 0 -8 5 -11 10 -3 6 -1 10 4 10 6 0 11 -4 11 -10z m4030 -4 c0 -8 -9
-14 -19 -13 -11 0 -17 5 -15 9 3 5 10 6 15 3 5 -4 9 -1 9 4 0 6 2 11 5 11 3 0
5 -6 5 -14z m-40 -36 c0 -5 -5 -10 -11 -10 -5 0 -7 5 -4 10 3 6 8 10 11 10 2
0 4 -4 4 -10z m30 0 c0 -5 -4 -10 -10 -10 -5 0 -10 5 -10 10 0 6 5 10 10 10 6
0 10 -4 10 -10z m-180 -159 c0 -5 -7 -12 -16 -15 -14 -5 -15 -4 -4 9 14 17 20
19 20 6z m-150 -192 c0 -14 -17 -10 -23 5 -4 10 -1 13 9 9 7 -3 14 -9 14 -14z
m-85 -49 c-3 -5 -12 -10 -18 -10 -7 0 -6 4 3 10 19 12 23 12 15 0z m-71 -135
c-8 -12 -11 -25 -7 -28 3 -4 2 -7 -4 -7 -18 0 -22 12 -8 27 16 16 21 38 6 29
-5 -3 -11 1 -14 9 -5 12 -2 12 18 3 22 -10 23 -12 9 -33z m86 33 c0 -3 -9 -6
-20 -5 -11 1 -20 5 -20 9 0 3 9 6 20 5 11 -1 20 -5 20 -9z m-116 -23 c3 -8 1
-15 -4 -15 -6 0 -10 7 -10 15 0 8 2 15 4 15 2 0 6 -7 10 -15z m-69 -75 c-3 -5
-12 -10 -18 -10 -7 0 -6 4 3 10 19 12 23 12 15 0z m43 -125 c-6 -14 -12 -24
-12 -23 -1 2 -8 12 -16 22 -8 11 -10 17 -5 14 6 -4 17 -3 25 3 21 12 21 12 8
-16z m-262 -121 c-4 -11 -1 -14 13 -9 12 4 21 0 25 -11 5 -14 4 -15 -8 -5 -11
9 -13 7 -13 -14 0 -20 2 -23 13 -14 8 6 14 9 14 6 0 -3 3 -12 6 -20 3 -8 -2
-17 -12 -21 -14 -5 -15 -4 -5 8 9 11 7 14 -14 14 -20 0 -23 -3 -14 -14 6 -8 7
-14 3 -14 -5 0 -15 9 -22 20 -13 22 -34 28 -26 7 2 -7 -2 -21 -10 -32 -15 -20
-15 -20 -13 2 0 12 5 19 9 17 4 -3 8 0 8 5 0 6 -8 11 -17 12 -13 0 -12 3 6 10
15 6 21 14 17 24 -4 13 -2 14 14 5 11 -6 20 -13 20 -16 0 -3 -4 -2 -10 1 -5 3
-10 2 -10 -4 0 -17 17 -21 30 -6 9 11 8 16 -8 26 -15 9 -17 15 -8 25 15 18 19
17 12 -2z m-76 -94 c0 -5 -2 -10 -4 -10 -3 0 -8 5 -11 10 -3 6 -1 10 4 10 6 0
11 -4 11 -10z m53 -8 c-4 -15 -43 -50 -43 -38 0 4 43 55 47 56 0 0 -1 -8 -4
-18z m-128 -32 c-3 -5 -12 -10 -18 -10 -7 0 -6 4 3 10 19 12 23 12 15 0z m16
-70 c6 0 7 5 4 10 -3 6 -1 10 4 10 13 0 13 -3 5 -24 -5 -14 -8 -14 -30 1 -13
8 -24 20 -24 25 0 5 7 2 16 -6 8 -9 20 -16 25 -16z m-51 10 c0 -5 -5 -10 -11
-10 -5 0 -7 5 -4 10 3 6 8 10 11 10 2 0 4 -4 4 -10z m-53 -105 c10 0 23 4 30
8 6 4 14 0 17 -9 7 -19 -1 -34 -17 -33 -9 0 -9 2 1 6 21 8 13 21 -13 21 -20 0
-23 -3 -14 -14 6 -8 8 -14 4 -14 -12 0 -44 44 -44 60 0 9 4 7 9 -6 4 -12 16
-20 27 -19z m23 23 c0 -3 -9 -6 -20 -5 -11 1 -20 5 -20 9 0 3 9 6 20 5 11 -1
20 -5 20 -9z m-73 -62 c-11 -15 -25 -23 -46 -23 -17 0 -30 1 -28 1 1 1 12 10
25 21 20 16 22 16 16 2 -3 -10 -1 -17 5 -17 6 0 12 6 12 13 1 6 2 17 4 22 1 6
3 17 4 25 1 12 4 11 12 -3 8 -13 7 -24 -4 -41z m127 -8 c-3 -5 -9 -6 -14 -3
-4 3 -10 -1 -13 -7 -2 -7 -8 -10 -11 -6 -4 3 1 15 11 25 17 18 39 10 27 -9z
m-413 -251 c-10 -9 -11 -8 -5 6 3 10 9 15 12 12 3 -3 0 -11 -7 -18z m-1341
-17 c0 -5 -5 -10 -11 -10 -5 0 -7 5 -4 10 3 6 8 10 11 10 2 0 4 -4 4 -10z
m1274 -113 c-8 -4 -22 -3 -31 3 -15 9 -14 10 5 4 21 -5 23 -3 17 18 -7 22 -7
22 8 3 13 -17 13 -21 1 -28z m-109 -97 c3 -5 -4 -19 -16 -31 -19 -19 -20 -23
-5 -31 17 -10 22 -38 6 -38 -5 0 -6 8 -3 18 4 11 -3 8 -22 -11 -15 -15 -30
-25 -33 -22 -3 3 4 12 15 20 12 9 22 23 22 33 0 16 7 64 10 70 3 6 20 1 26 -8z
m79 -5 c-4 -8 -10 -15 -15 -15 -4 0 -6 7 -3 15 4 8 10 15 15 15 4 0 6 -7 3
-15z m-142 -77 c-7 -7 -12 -8 -12 -2 0 14 12 26 19 19 2 -3 -1 -11 -7 -17z
m118 -13 c-7 -9 -15 -13 -19 -10 -3 3 1 10 9 15 21 14 24 12 10 -5z m-42 -28
c10 -8 8 -13 -8 -24 -11 -8 -18 -18 -16 -22 3 -4 1 -13 -5 -21 -7 -12 -9 -10
-9 7 0 12 7 29 16 38 9 9 13 19 9 23 -4 4 -15 -4 -26 -17 -10 -13 -19 -19 -19
-14 0 5 5 14 12 21 8 8 8 12 1 12 -25 0 -33 -26 -16 -51 14 -19 14 -22 2 -12
-9 7 -19 10 -22 7 -3 -4 -5 4 -4 17 2 41 51 61 85 36z m-190 -88 c-3 -8 -7 -3
-11 10 -4 17 -3 21 5 13 5 -5 8 -16 6 -23z m-87 -42 c-10 -9 -11 -8 -5 6 3 10
9 15 12 12 3 -3 0 -11 -7 -18z m169 -18 c-12 -16 -25 -28 -28 -25 -3 4 -14 -1
-24 -11 -11 -9 -18 -11 -18 -5 0 7 5 12 12 12 9 0 9 3 0 12 -7 7 -12 16 -12
22 0 5 6 2 13 -9 13 -17 15 -17 30 6 10 13 17 19 17 14 0 -5 5 -4 12 3 21 21
20 13 -2 -19z m-190 -39 c0 -5 -7 -7 -15 -4 -8 4 -15 8 -15 10 0 2 7 4 15 4 8
0 15 -4 15 -10z m60 -55 c-7 -8 -18 -15 -24 -15 -6 0 -2 7 8 15 25 19 32 19
16 0z m-355 -125 c-5 -8 -11 -8 -19 -1 -7 6 -15 9 -18 6 -2 -3 -5 2 -5 10 0
11 4 12 14 4 9 -8 13 -8 13 -1 0 6 -4 14 -10 17 -5 3 -10 11 -10 17 0 6 9 -1
21 -16 11 -14 17 -31 14 -36z m63 35 c-2 -1 -13 -7 -25 -13 -16 -9 -22 -9 -26
2 -4 10 0 12 14 9 11 -3 19 0 19 6 0 7 5 9 11 6 6 -4 9 -8 7 -10z m64 -62 c-6
-3 -10 -9 -7 -13 3 -5 2 -11 -3 -14 -13 -8 -11 28 2 36 6 4 13 4 16 1 3 -3 -1
-8 -8 -10z m128 3 c0 -3 -4 -8 -10 -11 -5 -3 -10 -1 -10 4 0 6 5 11 10 11 6 0
10 -2 10 -4z"/>
<path d="M5316 3024 c-9 -8 -16 -19 -16 -24 0 -8 31 -30 43 -30 8 0 4 36 -7
50 -6 8 -1 6 12 -4 23 -20 31 -9 10 12 -16 16 -23 15 -42 -4z m14 -24 c0 -5
-5 -10 -11 -10 -5 0 -7 5 -4 10 3 6 8 10 11 10 2 0 4 -4 4 -10z"/>
<path d="M5370 3001 c-8 -9 -17 -25 -18 -36 -3 -16 -1 -17 12 -6 8 7 20 10 25
7 6 -4 15 3 21 14 20 37 -11 54 -40 21z m32 -9 c-7 -2 -9 -9 -6 -14 4 -7 2 -8
-4 -4 -6 4 -9 13 -6 21 4 8 11 12 17 8 8 -5 7 -8 -1 -11z"/>
<path d="M3640 1219 c0 -5 5 -7 10 -4 6 3 10 8 10 11 0 2 -4 4 -10 4 -5 0 -10
-5 -10 -11z"/>
<path d="M2285 4940 c-4 -6 -11 -7 -17 -4 -7 4 -8 2 -4 -5 6 -9 11 -9 22 0 14
11 18 19 10 19 -3 0 -8 -5 -11 -10z"/>
<path d="M1962 4650 c-13 -17 -17 -27 -8 -24 11 4 41 54 33 54 -2 0 -13 -13
-25 -30z"/>
<path d="M4515 4560 c3 -5 8 -10 11 -10 2 0 4 5 4 10 0 6 -5 10 -11 10 -5 0
-7 -4 -4 -10z"/>
<path d="M4648 4433 c15 -18 31 -33 35 -33 5 0 1 7 -8 16 -9 9 -14 23 -11 30
3 9 0 11 -11 7 -10 -4 -14 -2 -10 4 3 5 0 10 -8 10 -8 0 -4 -12 13 -34z"/>
<path d="M4635 4380 c3 -5 8 -10 11 -10 2 0 4 5 4 10 0 6 -5 10 -11 10 -5 0
-7 -4 -4 -10z"/>
<path d="M4695 4350 c-3 -6 1 -7 9 -4 18 7 21 14 7 14 -6 0 -13 -4 -16 -10z"/>
<path d="M4695 4327 c-20 -15 -12 -42 11 -33 7 3 16 1 19 -4 8 -13 25 -13 25
1 0 5 -4 7 -10 4 -5 -3 -10 1 -10 9 0 17 -10 20 -26 9 -5 -5 -1 0 9 10 23 20
9 23 -18 4z"/>
<path d="M4747 4264 c-8 -8 1 -24 14 -24 5 0 9 7 9 15 0 15 -12 20 -23 9z"/>
<path d="M5860 3961 c0 -6 4 -13 10 -16 6 -3 7 1 4 9 -7 18 -14 21 -14 7z"/>
<path d="M5960 3809 c0 -5 -4 -8 -9 -5 -21 13 -20 -29 1 -52 13 -14 17 -22 11
-18 -17 10 -16 0 3 -29 16 -25 12 -45 -9 -45 -7 0 -18 -9 -24 -19 -10 -16 -8
-27 8 -60 19 -40 35 -57 22 -24 -5 12 -3 14 7 8 8 -5 11 -4 7 2 -4 6 0 16 8
23 8 7 12 17 9 22 -4 6 0 14 7 19 8 5 9 9 3 9 -12 0 -11 80 1 100 5 8 4 11 -2
7 -12 -8 -53 20 -53 35 0 7 6 4 13 -6 8 -11 20 -16 28 -13 10 4 9 6 -3 6 -17
1 -22 11 -19 39 1 6 -1 12 -4 12 -3 0 -5 -5 -5 -11z m22 -174 c2 3 4 -4 3 -15
-1 -11 -9 -27 -18 -35 -9 -9 -15 -12 -12 -9 2 4 0 15 -5 25 -13 24 -2 53 15
39 6 -5 14 -8 17 -5z"/>
<path d="M5950 3620 c0 -5 5 -10 11 -10 5 0 7 -5 3 -12 -4 -7 -3 -8 4 -4 6 4
9 13 5 21 -6 17 -23 20 -23 5z"/>
<path d="M5890 3620 c0 -5 5 -10 10 -10 6 0 10 5 10 10 0 6 -4 10 -10 10 -5 0
-10 -4 -10 -10z"/>
<path d="M5810 3591 c0 -6 5 -13 11 -16 6 -5 4 -12 -8 -21 -10 -7 -13 -14 -7
-14 6 0 18 8 27 18 15 16 15 19 -3 30 -11 7 -20 8 -20 3z"/>
<path d="M5760 3514 c-11 -12 -11 -18 2 -30 13 -13 15 -12 15 16 0 35 0 35
-17 14z"/>
<path d="M710 3486 c0 -2 7 -7 16 -10 8 -3 12 -2 9 4 -6 10 -25 14 -25 6z"/>
<path d="M5870 3440 c0 -5 5 -10 11 -10 5 0 7 5 4 10 -3 6 -8 10 -11 10 -2 0
-4 -4 -4 -10z"/>
<path d="M5799 3416 c9 -11 9 -15 -1 -19 -8 -4 -7 -6 5 -6 19 -1 20 0 11 23
-3 9 -11 16 -16 16 -6 0 -6 -6 1 -14z"/>
<path d="M5680 3390 c0 -5 5 -10 11 -10 5 0 7 5 4 10 -3 6 -8 10 -11 10 -2 0
-4 -4 -4 -10z"/>
<path d="M5655 3322 c2 -28 16 -44 32 -38 11 5 13 2 8 -11 -4 -13 0 -11 16 5
19 21 20 25 6 39 -13 14 -16 13 -22 -6 -6 -21 -25 -20 -25 0 0 6 5 7 10 4 6
-3 10 -2 10 3 0 6 -7 13 -16 16 -21 8 -21 8 -19 -12z"/>
<path d="M5568 3213 c-2 -10 0 -28 5 -40 8 -18 13 -20 34 -10 13 6 22 15 21
19 -4 12 -24 9 -20 -3 1 -5 -2 -9 -7 -9 -13 0 -21 27 -15 45 4 8 1 15 -4 15
-6 0 -12 -8 -14 -17z"/>
<path d="M5522 3193 c-6 -2 -9 -9 -6 -14 3 -6 12 -5 22 3 15 11 15 11 4 -3
-14 -18 -6 -52 11 -42 6 3 7 1 3 -5 -4 -6 -13 -9 -21 -5 -8 3 -15 0 -15 -6 0
-6 5 -11 11 -11 5 0 8 -4 4 -9 -3 -5 0 -13 7 -17 7 -4 10 -4 6 1 -10 10 10 47
22 40 5 -3 5 7 0 24 -14 50 -20 56 -48 44z"/>
<path d="M5435 3160 c3 -5 8 -10 11 -10 2 0 4 5 4 10 0 6 -5 10 -11 10 -5 0
-7 -4 -4 -10z"/>
<path d="M1050 3104 c0 -13 18 -39 24 -34 2 3 -2 14 -10 24 -8 11 -14 16 -14
10z"/>
<path d="M5322 2929 c3 -8 -1 -22 -10 -31 -11 -13 -12 -21 -3 -31 6 -8 7 -18
3 -23 -4 -5 3 0 15 10 18 15 20 23 12 37 -6 13 -6 19 1 19 5 0 10 -4 10 -10 0
-5 5 -10 10 -10 17 0 10 14 -17 34 -17 13 -24 15 -21 5z m18 -53 c0 -11 -19
-15 -25 -6 -3 5 1 10 9 10 9 0 16 -2 16 -4z"/>
<path d="M5163 2837 c-4 -6 -9 -20 -10 -31 -3 -15 -1 -16 11 -7 11 9 15 8 20
-5 7 -19 -1 -34 -17 -33 -9 0 -9 2 1 6 20 8 14 22 -10 21 -25 -2 -70 -36 -63
-49 3 -4 -2 -15 -11 -23 -26 -27 3 -18 32 9 15 14 33 24 39 21 7 -2 18 0 25 4
8 5 21 5 30 0 11 -6 17 -5 17 3 0 7 4 21 8 32 6 16 3 15 -14 -5 -12 -14 -19
-18 -16 -10 3 9 -4 26 -15 38 -19 20 -19 22 -3 19 10 -1 23 -5 28 -9 18 -11
64 -13 62 -3 -1 6 -11 10 -22 10 -11 0 -27 4 -35 10 -23 15 -48 16 -57 2z
m-18 -67 c3 -5 1 -10 -4 -10 -6 0 -11 5 -11 10 0 6 2 10 4 10 3 0 8 -4 11 -10z"/>
<path d="M5200 2811 c0 -5 5 -13 10 -16 6 -3 10 -2 10 4 0 5 -4 13 -10 16 -5
3 -10 2 -10 -4z"/>
<path d="M5093 2658 c1 -7 -6 -12 -15 -12 -10 1 -16 -5 -15 -17 1 -11 5 -19 9
-19 4 0 6 -6 4 -12 -1 -7 -1 -10 1 -5 3 4 10 4 16 0 7 -4 6 1 -2 10 -8 10 -11
21 -7 24 4 4 12 1 17 -7 8 -12 10 -10 6 8 -3 12 -1 22 4 22 5 0 9 -5 9 -12 0
-6 3 -8 6 -5 8 8 -14 37 -27 37 -5 0 -8 -6 -6 -12z"/>
<path d="M5015 2580 c3 -5 8 -10 11 -10 2 0 4 5 4 10 0 6 -5 10 -11 10 -5 0
-7 -4 -4 -10z"/>
<path d="M4858 2491 c-10 -16 -15 -18 -27 -8 -11 10 -13 9 -9 -3 2 -8 17 -15
31 -16 14 -1 24 3 21 8 -3 5 0 15 6 23 9 11 9 15 1 15 -6 0 -16 -9 -23 -19z"/>
<path d="M4820 2370 c-8 -5 -18 -6 -23 -3 -5 3 -8 0 -5 -7 5 -16 46 -21 55 -7
9 14 -11 27 -27 17z"/>
<path d="M4709 2258 c-6 -12 -4 -48 2 -48 5 0 9 5 9 10 0 6 5 10 11 10 5 0 7
-4 4 -10 -3 -5 -1 -10 4 -10 6 0 11 7 11 16 0 8 5 12 10 9 6 -3 10 -1 10 5 0
7 -7 10 -15 7 -8 -4 -17 -2 -20 3 -6 9 -23 14 -26 8z"/>
<path d="M4505 2150 c3 -5 8 -10 11 -10 2 0 4 5 4 10 0 6 -5 10 -11 10 -5 0
-7 -4 -4 -10z"/>
<path d="M4604 2112 c-13 -20 -14 -24 -2 -15 8 7 18 10 21 6 4 -3 7 -1 7 6 0
7 5 9 10 6 6 -3 10 -2 10 3 0 23 -30 19 -46 -6z"/>
<path d="M4510 2089 c0 -5 5 -7 10 -4 6 3 10 8 10 11 0 2 -4 4 -10 4 -5 0 -10
-5 -10 -11z"/>
<path d="M4554 2066 c-9 -23 -35 -28 -60 -11 -29 19 -32 2 -4 -18 12 -8 18
-20 15 -30 -4 -8 -1 -18 6 -23 8 -4 10 -3 5 4 -4 7 -2 12 3 12 6 0 10 5 9 11
-2 6 5 13 15 14 22 4 36 15 18 15 -9 0 -9 5 -1 20 6 11 8 20 5 20 -3 0 -8 -6
-11 -14z"/>
<path d="M4537 2009 c7 -7 15 -10 18 -7 3 3 -2 9 -12 12 -14 6 -15 5 -6 -5z"/>
<path d="M4371 1866 c-8 -9 -20 -15 -27 -12 -7 3 -20 -6 -28 -20 -9 -13 -23
-24 -31 -24 -11 0 -14 -7 -11 -25 6 -33 15 -47 27 -39 12 7 8 36 -6 47 -6 5
-4 7 5 4 8 -2 14 -9 13 -15 -1 -5 5 -16 15 -23 14 -11 15 -11 5 0 -13 16 -6
44 10 34 6 -3 7 -1 3 5 -4 8 0 12 11 12 15 0 16 2 3 10 -19 12 -33 13 -25 1 3
-5 1 -12 -4 -15 -5 -4 -13 -1 -17 5 -4 8 -3 9 5 5 7 -5 10 -2 9 6 -2 9 6 12
26 10 22 -3 27 0 23 12 -4 9 -2 16 3 16 6 0 10 -5 10 -11 0 -5 5 -7 10 -4 6 3
10 11 10 16 0 6 -4 8 -9 5 -5 -4 -11 -1 -13 5 -2 7 -9 5 -17 -5z"/>
<path d="M4206 1822 c-11 -18 15 -25 32 -8 11 10 12 16 4 16 -7 0 -12 -6 -12
-12 0 -10 -3 -9 -9 1 -5 8 -11 9 -15 3z"/>
<path d="M4115 1670 c-4 -6 -15 -8 -26 -5 -11 4 -19 2 -19 -5 0 -6 4 -9 9 -6
4 3 8 -11 8 -31 -1 -20 4 -38 11 -41 7 -2 10 2 7 10 -7 17 27 50 46 46 8 -2
15 7 17 20 2 12 -2 22 -8 22 -7 0 -10 -6 -7 -13 3 -8 -3 -14 -16 -14 -11 -1
-24 -8 -28 -15 -7 -10 -9 -10 -9 0 0 7 10 16 22 21 13 5 17 10 10 15 -6 3 -14
2 -17 -4z"/>
<path d="M4186 1671 c-4 -5 -3 -17 1 -27 4 -11 3 -15 -5 -10 -6 3 -13 2 -17
-3 -3 -6 -12 -8 -19 -5 -15 6 -42 -23 -31 -34 4 -4 10 -1 12 6 3 6 8 10 13 7
5 -3 16 2 24 11 9 8 16 10 16 4 0 -7 5 -6 14 2 8 7 11 17 6 22 -5 5 -6 15 -3
22 6 16 -3 19 -11 5z"/>
<path d="M4048 1665 c-3 -4 0 -18 7 -32 13 -24 12 -28 -11 -46 -14 -11 -23
-25 -20 -33 3 -9 0 -11 -11 -7 -12 5 -14 3 -8 -8 8 -12 6 -12 -8 0 -21 16 -28
12 -29 -20 -1 -13 -10 -34 -21 -46 -11 -13 -15 -23 -9 -23 6 0 16 8 21 18 6 9
11 12 11 5 0 -11 -14 -23 -79 -72 -24 -18 -24 -18 -5 -44 10 -15 26 -26 34
-27 13 0 13 2 1 9 -12 8 -12 10 0 14 8 2 6 3 -3 2 -24 -4 -33 27 -12 42 22 16
34 17 34 2 0 -5 4 -8 9 -4 6 3 15 -3 21 -12 9 -15 10 -15 4 6 -4 17 -3 21 6
16 9 -6 9 -2 0 15 -8 14 -8 26 -2 32 6 6 12 3 16 -7 4 -10 2 -14 -6 -9 -7 4
-8 3 -4 -5 4 -6 11 -9 16 -6 4 3 11 -1 14 -7 3 -7 4 -6 3 4 -1 9 7 24 18 33
11 9 15 14 9 11 -7 -3 -14 3 -17 15 -5 19 -4 20 18 5 22 -15 24 -15 18 1 -4
11 -3 14 5 9 7 -4 10 -2 6 7 -3 8 6 18 22 25 17 8 24 18 20 27 -3 9 0 15 9 15
8 0 15 5 15 10 0 12 -55 -14 -66 -31 -4 -8 1 -9 17 -4 18 5 21 4 9 -4 -8 -6
-23 -8 -32 -5 -13 4 -16 1 -12 -9 3 -8 1 -18 -5 -22 -7 -4 -8 1 -4 12 6 16 5
16 -10 4 -9 -7 -17 -9 -17 -3 0 5 7 13 16 16 14 5 14 9 3 24 -13 15 -12 16 4
3 14 -11 20 -11 32 -1 10 9 12 17 6 23 -5 5 -7 15 -4 22 5 16 -20 69 -29 60z
m22 -85 c0 -5 -5 -10 -11 -10 -5 0 -7 5 -4 10 3 6 8 10 11 10 2 0 4 -4 4 -10z
m-64 -75 c-2 -7 -2 -16 2 -19 10 -10 11 -35 2 -41 -5 -3 -7 3 -5 15 2 11 0 22
-6 25 -5 4 -9 1 -9 -6 0 -7 -3 -9 -6 -6 -4 4 -1 13 6 22 8 10 9 15 1 15 -6 0
-11 4 -11 10 0 5 7 7 16 3 8 -3 13 -11 10 -18z m-41 -85 c3 -5 1 -10 -4 -10
-6 0 -11 5 -11 10 0 6 2 10 4 10 3 0 8 -4 11 -10z"/>
<path d="M3823 1393 c-20 -7 -15 -22 7 -20 20 1 27 12 13 20 -5 2 -14 2 -20 0z"/>
<path d="M3913 1393 c-7 -3 -13 -9 -13 -15 0 -5 6 -8 13 -5 6 2 19 1 28 -4 11
-5 16 -3 16 7 0 7 -3 12 -5 9 -3 -3 -10 -1 -16 4 -6 4 -17 6 -23 4z"/>
<path d="M3820 1260 c-12 -8 -11 -10 6 -10 11 0 26 -6 34 -12 8 -7 6 -3 -4 10
-11 12 -20 22 -20 22 -1 0 -8 -5 -16 -10z"/>
<path d="M3778 1218 c18 -18 15 -27 -8 -23 -11 2 -20 -1 -20 -7 0 -5 7 -8 15
-4 8 3 15 1 15 -5 0 -5 6 -4 14 3 10 10 11 17 2 30 -6 10 -15 18 -20 18 -6 0
-5 -5 2 -12z"/>
<path d="M3670 1179 c0 -5 5 -7 10 -4 6 3 10 8 10 11 0 2 -4 4 -10 4 -5 0 -10
-5 -10 -11z"/>
<path d="M3579 1016 c6 -7 23 -13 38 -13 24 0 24 0 7 10 -10 6 -27 13 -38 14
-15 3 -16 0 -7 -11z"/>
<path d="M3610 979 c0 -5 5 -7 10 -4 6 3 10 8 10 11 0 2 -4 4 -10 4 -5 0 -10
-5 -10 -11z"/>
<path d="M2908 913 c7 -3 16 -2 19 1 4 3 -2 6 -13 5 -11 0 -14 -3 -6 -6z"/>
<path d="M3530 899 c0 -5 5 -7 10 -4 6 3 10 8 10 11 0 2 -4 4 -10 4 -5 0 -10
-5 -10 -11z"/>
<path d="M3432 830 l-23 -19 23 -12 c21 -11 22 -11 10 4 -11 13 -10 17 6 26
11 6 23 7 27 3 5 -4 5 -1 1 6 -10 16 -17 15 -44 -8z"/>
<path d="M3360 819 c0 -5 5 -7 10 -4 6 3 10 8 10 11 0 2 -4 4 -10 4 -5 0 -10
-5 -10 -11z"/>
<path d="M3305 791 c-3 -5 -1 -12 5 -16 5 -3 10 1 10 9 0 18 -6 21 -15 7z"/>
<path d="M3387 764 c6 -15 23 -19 23 -5 0 5 -7 11 -14 14 -10 4 -13 1 -9 -9z"/>
<path d="M3126 735 c-11 -8 -16 -18 -12 -22 3 -4 16 3 29 15 24 25 12 29 -17
7z"/>
</g>
</svg>
